<mxfile host="65bd71144e">
    <diagram id="J4gNn43iXZe9NwmfWtrl" name="Page-1">
        <mxGraphModel dx="1020" dy="530" grid="1" gridSize="10" guides="1" tooltips="1" connect="1" arrows="1" fold="1" page="1" pageScale="1" pageWidth="850" pageHeight="1100" math="0" shadow="0">
            <root>
                <mxCell id="0"/>
                <mxCell id="1" parent="0"/>
                <mxCell id="9" value="" style="rounded=0;whiteSpace=wrap;html=1;fillColor=light-dark(#647687,#33001A);fontColor=#ffffff;strokeColor=light-dark(#314354,#99004D);" parent="1" vertex="1">
                    <mxGeometry x="125" y="620" width="600" height="160" as="geometry"/>
                </mxCell>
                <mxCell id="15" value="" style="rounded=0;whiteSpace=wrap;html=1;fillColor=light-dark(#647687,#003300);fontColor=#ffffff;strokeColor=light-dark(#314354,#009900);" parent="1" vertex="1">
                    <mxGeometry x="125" y="350" width="600" height="210" as="geometry"/>
                </mxCell>
                <mxCell id="13" style="edgeStyle=none;html=1;entryX=0.5;entryY=1;entryDx=0;entryDy=0;" parent="1" source="2" target="3" edge="1">
                    <mxGeometry relative="1" as="geometry"/>
                </mxCell>
                <mxCell id="22" style="edgeStyle=none;html=1;entryX=1;entryY=0.5;entryDx=0;entryDy=0;" edge="1" parent="1" source="2" target="20">
                    <mxGeometry relative="1" as="geometry"/>
                </mxCell>
                <mxCell id="23" style="edgeStyle=none;html=1;entryX=0;entryY=0.5;entryDx=0;entryDy=0;" edge="1" parent="1" source="2" target="21">
                    <mxGeometry relative="1" as="geometry"/>
                </mxCell>
                <mxCell id="31" style="edgeStyle=none;html=1;entryX=0.5;entryY=0;entryDx=0;entryDy=0;" edge="1" parent="1" source="2" target="4">
                    <mxGeometry relative="1" as="geometry"/>
                </mxCell>
                <mxCell id="32" style="edgeStyle=none;html=1;exitX=0.25;exitY=1;exitDx=0;exitDy=0;entryX=0.75;entryY=0;entryDx=0;entryDy=0;dashed=1;rounded=0;curved=0;dashPattern=8 8;" edge="1" parent="1" source="2" target="24">
                    <mxGeometry relative="1" as="geometry">
                        <Array as="points">
                            <mxPoint x="403" y="590"/>
                            <mxPoint x="263" y="590"/>
                        </Array>
                    </mxGeometry>
                </mxCell>
                <mxCell id="33" style="edgeStyle=none;html=1;exitX=0.75;exitY=1;exitDx=0;exitDy=0;entryX=0.25;entryY=0;entryDx=0;entryDy=0;dashed=1;rounded=0;curved=0;dashPattern=8 8;" edge="1" parent="1" source="2" target="5">
                    <mxGeometry relative="1" as="geometry">
                        <Array as="points">
                            <mxPoint x="478" y="590"/>
                            <mxPoint x="600" y="590"/>
                        </Array>
                    </mxGeometry>
                </mxCell>
                <mxCell id="2" value="RemoteAuthentication" style="whiteSpace=wrap;html=1;" parent="1" vertex="1">
                    <mxGeometry x="365" y="460" width="150" height="60" as="geometry"/>
                </mxCell>
                <mxCell id="3" value="HttpClient" style="whiteSpace=wrap;html=1;dashed=1;rounded=1;glass=0;shadow=0;" parent="1" vertex="1">
                    <mxGeometry x="380" y="360" width="120" height="60" as="geometry"/>
                </mxCell>
                <mxCell id="10" style="edgeStyle=none;html=1;entryX=0;entryY=0.5;entryDx=0;entryDy=0;" parent="1" source="4" target="5" edge="1">
                    <mxGeometry relative="1" as="geometry"/>
                </mxCell>
                <mxCell id="25" value="" style="edgeStyle=none;html=1;" edge="1" parent="1" source="4" target="24">
                    <mxGeometry relative="1" as="geometry"/>
                </mxCell>
                <mxCell id="4" value="Authentication" style="whiteSpace=wrap;html=1;dashed=1;rounded=1;" parent="1" vertex="1">
                    <mxGeometry x="380" y="670" width="120" height="60" as="geometry"/>
                </mxCell>
                <mxCell id="5" value="AccountEntity" style="whiteSpace=wrap;html=1;" parent="1" vertex="1">
                    <mxGeometry x="570" y="670" width="120" height="60" as="geometry"/>
                </mxCell>
                <mxCell id="14" value="Domain" style="text;html=1;align=center;verticalAlign=middle;whiteSpace=wrap;rounded=0;" parent="1" vertex="1">
                    <mxGeometry x="665" y="590" width="60" height="30" as="geometry"/>
                </mxCell>
                <mxCell id="16" value="Data" style="text;html=1;align=center;verticalAlign=middle;whiteSpace=wrap;rounded=0;" parent="1" vertex="1">
                    <mxGeometry x="675" y="320" width="50" height="30" as="geometry"/>
                </mxCell>
                <mxCell id="34" style="edgeStyle=none;html=1;entryX=0.5;entryY=0;entryDx=0;entryDy=0;" edge="1" parent="1" source="20" target="24">
                    <mxGeometry relative="1" as="geometry"/>
                </mxCell>
                <mxCell id="20" value="RemoteAuthenticationParams" style="whiteSpace=wrap;html=1;" vertex="1" parent="1">
                    <mxGeometry x="145" y="460" width="170" height="60" as="geometry"/>
                </mxCell>
                <mxCell id="36" style="edgeStyle=none;html=1;entryX=0.5;entryY=0;entryDx=0;entryDy=0;" edge="1" parent="1" source="21" target="5">
                    <mxGeometry relative="1" as="geometry"/>
                </mxCell>
                <mxCell id="21" value="RemoteAccountModel" style="whiteSpace=wrap;html=1;" vertex="1" parent="1">
                    <mxGeometry x="555" y="460" width="150" height="60" as="geometry"/>
                </mxCell>
                <mxCell id="24" value="AuthenticationParams" style="whiteSpace=wrap;html=1;" vertex="1" parent="1">
                    <mxGeometry x="165" y="670" width="130" height="60" as="geometry"/>
                </mxCell>
            </root>
        </mxGraphModel>
    </diagram>
</mxfile>